<?xml version="1.0" encoding="UTF-8"?>
<svg version="1.1" xmlns="http://www.w3.org/2000/svg" width="512" height="512">
<path d="M0 0 C1.85624168 -0.00417627 3.7124808 -0.00965539 5.56871521 -0.01631981 C10.6537137 -0.03075467 15.73854984 -0.02653579 20.82355714 -0.019153 C26.3137935 -0.0144188 31.80399486 -0.02693342 37.29421997 -0.03717041 C48.04390438 -0.05435878 58.79353033 -0.05519833 69.54322492 -0.04995751 C78.28144842 -0.04591464 87.01965467 -0.04736075 95.75787735 -0.05270576 C97.00197033 -0.05345419 98.24606332 -0.05420261 99.52785609 -0.05497371 C102.05530198 -0.0565052 104.58274786 -0.05804355 107.11019374 -0.05958868 C124.07752254 -0.06941597 141.04484425 -0.07358273 158.01217461 -0.06596279 C159.00686111 -0.06551703 159.00686111 -0.06551703 160.02164229 -0.06506227 C165.40626685 -0.06261347 170.79089133 -0.06000181 176.17551581 -0.05737813 C197.17629588 -0.04727679 218.17699598 -0.05563057 239.17776489 -0.07887268 C262.78760812 -0.10496022 286.39741519 -0.1177397 310.0072757 -0.11068493 C322.50260598 -0.10719242 334.9978706 -0.10942695 347.49319077 -0.12693596 C358.13016041 -0.14165624 368.76701816 -0.14229556 379.4039856 -0.12486505 C384.82927569 -0.11635133 390.25436587 -0.11421477 395.67964554 -0.1295166 C400.6502413 -0.14336227 405.62046587 -0.13860184 410.59104015 -0.11927737 C412.38501986 -0.11551672 414.17902929 -0.11844118 415.97298251 -0.12888902 C429.39846194 -0.20149141 440.93512134 0.89686649 451.53274536 10.04393005 C460.7016312 19.54536616 463.09964631 28.88203479 463.06188965 41.63346863 C463.06642076 42.75874883 463.07095187 43.88402903 463.07562029 45.04340863 C463.08827024 48.81022587 463.08664351 52.57689863 463.08499146 56.34373474 C463.08989045 59.04610233 463.09772535 61.74845982 463.10534668 64.45082092 C463.12193542 71.02756404 463.12745527 77.60427129 463.12857144 84.18103358 C463.12952296 89.52927119 463.13363849 94.87749701 463.13997269 100.2257309 C463.15757966 115.40181539 463.16681246 130.57787164 463.16531174 145.75396642 C463.16519187 146.98031092 463.16519187 146.98031092 463.16506958 148.23143005 C463.16498782 149.04999581 463.16490606 149.86856156 463.16482182 150.71193233 C463.16400918 163.97341721 463.18314271 177.23478845 463.21134631 190.49624047 C463.24010273 204.12560285 463.25388508 217.75490985 463.25215876 231.38430333 C463.25149579 239.03109491 463.25694725 246.67776736 463.27851486 254.32453156 C463.29676307 260.83594712 463.3010443 267.34718955 463.28749602 273.85861966 C463.2809843 277.17761433 463.28297413 280.49600738 463.29820251 283.81501389 C463.31367567 287.42162245 463.30433177 291.02736649 463.28894043 294.63395691 C463.29922756 295.67104254 463.30951468 296.70812818 463.32011354 297.77664065 C463.22023406 308.40792321 459.97367581 317.08486768 453.06399536 325.16111755 C441.81445541 336.19767138 428.52236399 336.82949988 413.70918274 336.77536011 C411.85380411 336.77953541 409.99842804 336.78501401 408.14305669 336.79167992 C403.05579894 336.80612752 397.9687033 336.80189189 392.88143671 336.79451311 C387.39050107 336.78978203 381.89960053 336.80229081 376.40867615 336.81253052 C365.65551253 336.8297254 354.90240734 336.83055703 344.14923354 336.82531761 C335.4081257 336.82127573 326.66703513 336.8227197 317.92592812 336.82806587 C316.05958541 336.82918851 316.05958541 336.82918851 314.1555388 336.83033382 C311.62785138 336.8318653 309.10016396 336.83340365 306.57247654 336.83494879 C289.60127775 336.84477736 272.63008522 336.84894154 255.658885 336.8413229 C254.66379947 336.84087714 254.66379947 336.84087714 253.64861121 336.84042237 C248.26173896 336.83797355 242.8748668 336.8353619 237.48799463 336.83273824 C216.48066438 336.82263801 195.47341408 336.83098798 174.46609497 336.85423279 C150.85149798 336.88032044 127.23693713 336.89309967 103.62232286 336.88604504 C91.12362423 336.88255238 78.62499124 336.88478797 66.12630272 336.90229607 C55.48564907 336.91701661 44.84510727 336.9176554 34.20445582 336.90022516 C28.77714744 336.89171139 23.3500389 336.88957497 17.92274094 336.90487671 C12.9502549 336.91872238 7.97813992 336.91396194 3.00567535 336.89463747 C1.21099281 336.8908768 -0.58371944 336.89380135 -2.37837551 336.90424912 C-15.80593578 336.97683373 -27.34440938 335.8800332 -37.94381714 326.73143005 C-47.11270298 317.22999395 -49.51071809 307.89332532 -49.47296143 295.14189148 C-49.47749254 294.01661128 -49.48202365 292.89133108 -49.48669207 291.73195148 C-49.49934202 287.96513424 -49.49771528 284.19846148 -49.49606323 280.43162537 C-49.50096223 277.72925777 -49.50879713 275.02690028 -49.51641846 272.32453918 C-49.5330072 265.74779607 -49.53852705 259.17108881 -49.53964321 252.59432653 C-49.54059474 247.24608891 -49.54471027 241.89786309 -49.55104446 236.54962921 C-49.56865144 221.37354472 -49.57788424 206.19748847 -49.57638352 191.02139369 C-49.5763036 190.20383069 -49.57622369 189.38626769 -49.57614136 188.54393005 C-49.5760596 187.7253643 -49.57597783 186.90679855 -49.5758936 186.06342778 C-49.57508096 172.80194289 -49.59421448 159.54057166 -49.62241809 146.27911964 C-49.65117451 132.64975726 -49.66495685 119.02045025 -49.66323054 105.39105678 C-49.66256757 97.74426519 -49.66801903 90.09759274 -49.68958664 82.45082855 C-49.70783484 75.93941299 -49.71211608 69.42817056 -49.69856779 62.91674045 C-49.69205607 59.59774578 -49.6940459 56.27935272 -49.70927429 52.96034622 C-49.72474745 49.35373766 -49.71540355 45.74799362 -49.70001221 42.1414032 C-49.71029933 41.10431756 -49.72058646 40.06723193 -49.73118532 38.99871945 C-49.61973041 27.13533602 -45.52393393 17.809504 -37.20553589 9.38768005 C-26.17895917 -0.02961249 -13.80880385 -0.05055725 0 0 Z " fill="#FE4E58" transform="translate(49.205535888671875,87.61231994628906)"/>
<path d="M0 0 C1.85624168 -0.00417627 3.7124808 -0.00965539 5.56871521 -0.01631981 C10.6537137 -0.03075467 15.73854984 -0.02653579 20.82355714 -0.019153 C26.3137935 -0.0144188 31.80399486 -0.02693342 37.29421997 -0.03717041 C48.04390438 -0.05435878 58.79353033 -0.05519833 69.54322492 -0.04995751 C78.28144842 -0.04591464 87.01965467 -0.04736075 95.75787735 -0.05270576 C97.00197033 -0.05345419 98.24606332 -0.05420261 99.52785609 -0.05497371 C102.05530198 -0.0565052 104.58274786 -0.05804355 107.11019374 -0.05958868 C124.07752254 -0.06941597 141.04484425 -0.07358273 158.01217461 -0.06596279 C159.00686111 -0.06551703 159.00686111 -0.06551703 160.02164229 -0.06506227 C165.40626685 -0.06261347 170.79089133 -0.06000181 176.17551581 -0.05737813 C197.17629588 -0.04727679 218.17699598 -0.05563057 239.17776489 -0.07887268 C262.78760812 -0.10496022 286.39741519 -0.1177397 310.0072757 -0.11068493 C322.50260598 -0.10719242 334.9978706 -0.10942695 347.49319077 -0.12693596 C358.13016041 -0.14165624 368.76701816 -0.14229556 379.4039856 -0.12486505 C384.82927569 -0.11635133 390.25436587 -0.11421477 395.67964554 -0.1295166 C400.6502413 -0.14336227 405.62046587 -0.13860184 410.59104015 -0.11927737 C412.38501986 -0.11551672 414.17902929 -0.11844118 415.97298251 -0.12888902 C429.39846194 -0.20149141 440.93512134 0.89686649 451.53274536 10.04393005 C479.77705495 39.31264465 462.79446411 103.76120991 462.79446411 129.38768005 C372.37446411 129.38768005 281.95446411 129.38768005 188.79446411 129.38768005 C188.79446411 144.89768005 188.79446411 160.40768005 188.79446411 176.38768005 C184.04154595 181.14059822 183.10216147 181.49888441 176.64448804 181.53540975 C175.33931099 181.5351332 175.33931099 181.5351332 174.00776672 181.53485107 C173.08670287 181.53852776 172.16563902 181.54220445 171.21666414 181.54599255 C168.11132564 181.5570598 165.00602058 181.56087836 161.90066528 181.56468201 C159.68190911 181.5709443 157.46315398 181.57759089 155.24440002 181.58459473 C149.20305674 181.60202487 143.16172139 181.61256171 137.12035918 181.62080026 C133.34899427 181.62594553 129.57763185 181.63202143 125.80626869 181.63831139 C115.36719566 181.65518315 104.92812379 181.6698186 94.48903942 181.67706013 C91.77956834 181.67897006 89.07009727 181.68089039 86.36062622 181.68284607 C85.35047165 181.68357168 85.35047165 181.68357168 84.31990991 181.68431195 C73.40786576 181.6926143 62.49593116 181.71795452 51.58393487 181.75042675 C40.38429502 181.78348362 29.18470882 181.80117473 17.98501378 181.80470437 C11.69535692 181.80705942 5.4058732 181.81607906 -0.88373756 181.84116554 C-6.79919582 181.86437817 -12.7143661 181.86870689 -18.62985802 181.85840416 C-20.80310903 181.85790705 -22.9763739 181.86427878 -25.14958191 181.87796021 C-28.11269908 181.89557335 -31.07477089 181.88862497 -34.03788757 181.87542725 C-34.90131344 181.88639649 -35.76473931 181.89736574 -36.6543296 181.90866739 C-40.70736312 181.86497393 -42.71070598 181.70088299 -46.21601391 179.48219585 C-49.37301758 176.1585864 -49.33447143 174.21035065 -49.35270691 169.71643066 C-49.35986221 168.50952576 -49.36701752 167.30262085 -49.37438965 166.05914307 C-49.37723013 164.71430995 -49.37994183 163.36947656 -49.38253784 162.02464294 C-49.38880198 160.61364067 -49.39544873 159.20264004 -49.40245056 157.79164124 C-49.42351315 153.14788465 -49.43386035 148.50412768 -49.44381714 143.8603363 C-49.44786497 142.2601768 -49.4519819 140.66001747 -49.45616722 139.05985832 C-49.4752299 131.53615386 -49.48945424 124.01245924 -49.49777919 116.48873526 C-49.50753244 107.81784198 -49.53379711 99.14720529 -49.57428008 90.47640234 C-49.60451963 83.76796321 -49.61925578 77.05959725 -49.6225602 70.35109133 C-49.62490333 66.34827481 -49.63376577 62.34573205 -49.65902138 58.34298897 C-49.68244236 54.56968931 -49.6864797 50.79684082 -49.67625999 47.02348709 C-49.67553483 44.99427656 -49.69453077 42.96508824 -49.71432495 40.93597412 C-49.64217632 28.13213022 -46.26727139 18.56208367 -37.20553589 9.38768005 C-26.17895917 -0.02961249 -13.80880385 -0.05055725 0 0 Z " fill="#42489B" transform="translate(49.205535888671875,87.61231994628906)"/>
<path d="M0 0 C90.42 0 180.84 0 274 0 C274 25.74 274 51.48 274 78 C105.04 78 -63.92 78 -238 78 C-238 67.44 -238 56.88 -238 46 C-236.02 47.65 -234.04 49.3 -232 51 C-229.8583141 51.71704818 -229.8583141 51.71704818 -227.74336052 51.61803246 C-226.94663362 51.6286044 -226.14990673 51.63917634 -225.32903659 51.65006864 C-224.04031341 51.62924551 -224.04031341 51.62924551 -222.72555542 51.60800171 C-221.8003683 51.6129794 -220.87518118 51.61795709 -219.92195809 51.62308562 C-216.82623836 51.63365092 -213.73185181 51.60851649 -210.63623047 51.58349609 C-208.41526162 51.58372282 -206.19429207 51.58613725 -203.97332764 51.59057617 C-197.94448923 51.59628449 -191.91613402 51.57098355 -185.88738775 51.53990126 C-179.58185351 51.51236617 -173.27631864 51.51236171 -166.97073364 51.50918579 C-156.38356485 51.49998148 -145.7965579 51.47261156 -135.20947266 51.43212891 C-124.31623988 51.39051174 -113.42309188 51.36219057 -102.52978516 51.35009766 C-101.52295059 51.34897533 -101.52295059 51.34897533 -100.49577592 51.34783034 C-97.79774091 51.344856 -95.09970587 51.34191871 -92.40167075 51.33904406 C-81.39181299 51.32699386 -70.3819718 51.30515562 -59.37213373 51.2814641 C-56.86274338 51.27610001 -54.35335252 51.27096366 -51.84396124 51.26605177 C-44.69240936 51.25175802 -37.54090946 51.23234254 -30.38939667 51.20457458 C-28.22057501 51.19684634 -26.05174668 51.19078743 -23.8829155 51.18649673 C-20.92873008 51.18028881 -17.97463437 51.16794019 -15.02047729 51.15390015 C-14.15686706 51.15340239 -13.29325683 51.15290463 -12.4034766 51.15239179 C-11.61196519 51.14731725 -10.82045379 51.14224271 -10.0049572 51.13701439 C-9.32319416 51.13468375 -8.64143112 51.1323531 -7.93900859 51.12995183 C-5.80006016 50.98660009 -4.01292995 50.75414371 -2 50 C3.27467745 34.17596764 -0.3548132 16.67622049 0 0 Z " fill="#FE4B55" transform="translate(238,217)"/>
<path d="M0 0 C168.96 0 337.92 0 512 0 C512 29.40016234 512 29.40016234 502.26953125 40.7734375 C491.0199913 51.80999132 477.72789988 52.44181983 462.91471863 52.38768005 C461.05934 52.39185536 459.20396393 52.39733396 457.34859258 52.40399987 C452.26133483 52.41844747 447.17423919 52.41421183 442.08697259 52.40683305 C436.59603696 52.40210198 431.10513642 52.41461076 425.61421204 52.42485046 C414.86104842 52.44204534 404.10794322 52.44287698 393.35476943 52.43763756 C384.61366159 52.43359567 375.87257102 52.43503965 367.131464 52.44038582 C365.26512129 52.44150845 365.26512129 52.44150845 363.36107469 52.44265376 C360.83338727 52.44418525 358.30569985 52.4457236 355.77801243 52.44726873 C338.80681364 52.45709731 321.83562111 52.46126149 304.86442089 52.45364285 C303.86933536 52.45319709 303.86933536 52.45319709 302.8541471 52.45274232 C297.46727485 52.45029349 292.08040269 52.44768185 286.69353052 52.44505819 C265.68620027 52.43495796 244.67894996 52.44330792 223.67163086 52.46655273 C200.05703387 52.49264039 176.44247302 52.50541961 152.82785875 52.49836498 C140.32916012 52.49487232 127.83052713 52.49710792 115.33183861 52.51461601 C104.69118496 52.52933656 94.05064316 52.52997534 83.4099917 52.5125451 C77.98268333 52.50403134 72.55557479 52.50189492 67.12827682 52.51719666 C62.15579079 52.53104233 57.18367581 52.52628188 52.21121124 52.50695742 C50.4165287 52.50319675 48.62181645 52.5061213 46.82716038 52.51656907 C33.39960011 52.58915368 21.8611265 51.49235315 11.26171875 42.34375 C-1.03743717 29.5985107 0 18.23913517 0 0 Z " fill="#F5F3F3" transform="translate(0,372)"/>
<path d="M0 0 C90.09 0 180.18 0 273 0 C279.30644447 25.22577787 274 51.99786334 274 78 C183.58 78 93.16 78 0 78 C0 52.26 0 26.52 0 0 Z " fill="#FE4D57" transform="translate(238,114)"/>
<path d="M0 0 C1.98 1.65 3.96 3.3 6 5 C8.02216263 5.71751701 8.02216263 5.71751701 9.98967779 5.62740451 C10.72847065 5.64007439 11.46726351 5.65274428 12.22844404 5.6657981 C13.02448075 5.65426738 13.82051746 5.64273665 14.6406765 5.63085651 C15.50191665 5.63831411 16.3631568 5.6457717 17.25049514 5.65345529 C20.1445136 5.67240762 23.03722596 5.65569519 25.9312439 5.63923645 C28.02357872 5.64554624 30.1159079 5.65404793 32.20822585 5.66455668 C37.96399519 5.68710379 43.71936456 5.67848173 49.47514653 5.6648711 C55.67963362 5.65562474 61.8840371 5.67514071 68.08850098 5.69119263 C78.84021822 5.71505871 89.59178539 5.7208087 100.3435173 5.71384621 C111.6201611 5.70661962 122.89672439 5.70970436 134.17335892 5.72656822 C135.22497747 5.72813219 135.22497747 5.72813219 136.29784083 5.72972776 C139.85825004 5.7350765 143.41865894 5.74060953 146.97906776 5.74621352 C172.19910006 5.78557762 197.41909952 5.80181069 222.63916016 5.80444336 C247.14048114 5.80705393 271.64175992 5.82014027 296.14306641 5.84741211 C296.89826954 5.84824853 297.65347268 5.84908496 298.43156075 5.84994673 C306.01560362 5.85835801 313.59964623 5.86698229 321.18368868 5.87576263 C336.63333226 5.89364445 352.08297725 5.91010454 367.53262329 5.92570496 C368.24297695 5.926424 368.9533306 5.92714303 369.68521013 5.92788386 C417.12346007 5.97573916 464.56172862 5.99006908 512 6 C512 14.58 512 23.16 512 32 C343.04 32 174.08 32 0 32 C0 21.44 0 10.88 0 0 Z " fill="#F5F3F3" transform="translate(0,263)"/>
<path d="M0 0 C168.96 0 337.92 0 512 0 C512 8.58 512 17.16 512 26 C343.04 26 174.08 26 0 26 C0 17.42 0 8.84 0 0 Z " fill="#FE4D56" transform="translate(0,346)"/>
<path d="M0 0 C168.96 0 337.92 0 512 0 C512 8.25 512 16.5 512 25 C343.04 25 174.08 25 0 25 C0 16.75 0 8.5 0 0 Z " fill="#F5F5F5" transform="translate(0,321)"/>
<path d="M0 0 C167.31 0 334.62 0 507 0 C505.39054853 8.04725737 500.41115147 14.68854257 493.6875 19.4375 C482.45888749 25.81896673 472.30943258 26.57642467 459.67420959 26.50793457 C457.81710317 26.51254836 455.9600004 26.51890448 454.10290521 26.52684355 C449.02011702 26.54349442 443.93763043 26.53530975 438.85484135 26.52289867 C433.36529919 26.51383308 427.87580818 26.52782545 422.38627625 26.53881836 C411.64005132 26.55659237 400.89393824 26.55276843 390.14770896 26.5411678 C381.41236649 26.5321289 372.67705533 26.53091146 363.94170952 26.53526306 C362.07577328 26.53618246 362.07577328 26.53618246 360.17214135 26.53712043 C357.64493699 26.53839935 355.11773264 26.53969621 352.5905283 26.5410108 C329.57512035 26.55208848 306.55976189 26.54060614 283.54436608 26.51964041 C262.55013394 26.50066122 241.55599887 26.50235545 220.56176758 26.52148438 C196.95667425 26.54292046 173.35162224 26.55131252 149.74651808 26.53903532 C147.22838081 26.53776115 144.71024353 26.53650366 142.19210625 26.53526306 C140.33373193 26.53433741 140.33373193 26.53433741 138.4378147 26.53339306 C129.71543255 26.5299422 120.99308489 26.53576286 112.27070808 26.54518127 C101.63741663 26.55641086 91.00424327 26.55334102 80.37096531 26.5320583 C74.94769755 26.52156057 69.52462653 26.51740438 64.10136032 26.53065491 C59.1326483 26.54261103 54.16431459 26.53596309 49.19563668 26.5147447 C47.40236251 26.51029226 45.6090561 26.51251421 43.81580282 26.52224785 C30.28115059 26.59005287 18.86928981 25.43982151 8.203125 16.21875 C3.17687802 11.15685588 0 7.25586407 0 0 Z " fill="#FE4C56" transform="translate(3,398)"/>
<path d="M0 0 C90.42 0 180.84 0 274 0 C274 8.58 274 17.16 274 26 C183.58 26 93.16 26 0 26 C0 17.42 0 8.84 0 0 Z " fill="#F4F2F3" transform="translate(238,217)"/>
<path d="M0 0 C90.42 0 180.84 0 274 0 C274 8.58 274 17.16 274 26 C183.58 26 93.16 26 0 26 C0 17.42 0 8.84 0 0 Z " fill="#F4F1F1" transform="translate(238,166)"/>
<path d="M0 0 C90.09 0 180.18 0 273 0 C275.10352956 8.41411823 274 17.32692545 274 26 C183.58 26 93.16 26 0 26 C0 17.42 0 8.84 0 0 Z " fill="#F4F3F3" transform="translate(238,114)"/>
<path d="M0 0 C31.51684588 -0.09134287 63.03365394 -0.16208635 94.55060135 -0.20426132 C98.27543367 -0.20926386 102.00026573 -0.21444118 105.72509766 -0.21972656 C106.46661301 -0.2207758 107.20812836 -0.22182505 107.97211388 -0.22290608 C119.96268784 -0.24028903 131.95318473 -0.27181502 143.94371304 -0.30861118 C156.25638129 -0.34607947 168.56900931 -0.36824827 180.88173223 -0.37635398 C188.47317221 -0.38182959 196.06439429 -0.39909411 203.65576717 -0.43166587 C209.48679409 -0.45540304 215.31768283 -0.45780503 221.1487484 -0.45243073 C223.53353144 -0.45352795 225.91832302 -0.46144146 228.30305672 -0.4768219 C256.75549934 -0.65127117 256.75549934 -0.65127117 268.73046875 9.640625 C272.93738192 14.0140769 278 19.70962413 278 26 C188.24 26 98.48 26 6 26 C5.67 19.07 5.34 12.14 5 5 C3.35 3.35 1.7 1.7 0 0 Z " fill="#FE4C56" transform="translate(232,88)"/>
<path d="M0 0 C90.42 0 180.84 0 274 0 C274 8.25 274 16.5 274 25 C183.58 25 93.16 25 0 25 C0 16.75 0 8.5 0 0 Z " fill="#FE4A55" transform="translate(238,192)"/>
<path d="M0 0 C0.66 0 1.32 0 2 0 C2.33 1.98 2.66 3.96 3 6 C5.31 6 7.62 6 10 6 C10 6.99 10 7.98 10 9 C9.01 9.66 8.02 10.32 7 11 C6.74984127 14.58357241 6.74984127 14.58357241 7 18 C6.4225 17.835 5.845 17.67 5.25 17.5 C1.60994097 16.69109799 -1.47291292 16.99226083 -5 18 C-4.9175 16.906875 -4.835 15.81375 -4.75 14.6875 C-4.57398486 10.96483185 -4.57398486 10.96483185 -7 9.1875 C-7.99 8.5996875 -7.99 8.5996875 -9 8 C-9 7.34 -9 6.68 -9 6 C-6.69 6 -4.38 6 -2 6 C-1.34 4.02 -0.68 2.04 0 0 Z " fill="#E4E4EC" transform="translate(166,108)"/>
<path d="M0 0 C0.66 0 1.32 0 2 0 C2.185625 0.78375 2.37125 1.5675 2.5625 2.375 C3.83961627 5.39376342 3.83961627 5.39376342 7.625 6.3125 C8.73875 6.539375 9.8525 6.76625 11 7 C10.01 7.7734375 10.01 7.7734375 9 8.5625 C6.34362457 11.79995755 6.68657868 13.92552281 7 18 C5.948125 17.62875 4.89625 17.2575 3.8125 16.875 C-0.18632214 15.95723754 -1.49128216 16.08615391 -5 18 C-4.9175 16.9275 -4.835 15.855 -4.75 14.75 C-4.63762783 10.95990735 -4.63762783 10.95990735 -7 8.5625 C-7.66 8.046875 -8.32 7.53125 -9 7 C-7.88625 6.773125 -6.7725 6.54625 -5.625 6.3125 C-1.83961627 5.39376342 -1.83961627 5.39376342 -0.5625 2.375 C-0.376875 1.59125 -0.19125 0.8075 0 0 Z " fill="#E5E5ED" transform="translate(23,200)"/>
<path d="M0 0 C0.66 0 1.32 0 2 0 C2.33 1.98 2.66 3.96 3 6 C5.31 6 7.62 6 10 6 C10 6.99 10 7.98 10 9 C9.01 9.66 8.02 10.32 7 11 C6.63702064 12.97747122 6.63702064 12.97747122 6.8125 15.125 C6.874375 16.40375 6.93625 17.6825 7 19 C6.319375 18.46375 5.63875 17.9275 4.9375 17.375 C1.94027673 15.61190014 1.94027673 15.61190014 -1.8125 16.8125 C-2.864375 17.204375 -3.91625 17.59625 -5 18 C-4.9175 16.906875 -4.835 15.81375 -4.75 14.6875 C-4.57398486 10.96483185 -4.57398486 10.96483185 -7 9.1875 C-7.99 8.5996875 -7.99 8.5996875 -9 8 C-9 7.34 -9 6.68 -9 6 C-5.535 5.505 -5.535 5.505 -2 5 C-1.34 3.35 -0.68 1.7 0 0 Z " fill="#E4E5EC" transform="translate(47,123)"/>
<path d="M0 0 C0.66 0 1.32 0 2 0 C2.33 1.98 2.66 3.96 3 6 C5.31 6 7.62 6 10 6 C10 6.99 10 7.98 10 9 C9.01 9.66 8.02 10.32 7 11 C6.74984127 14.58357241 6.74984127 14.58357241 7 18 C5.948125 17.62875 4.89625 17.2575 3.8125 16.875 C-0.18632214 15.95723754 -1.49128216 16.08615391 -5 18 C-4.9175 16.9275 -4.835 15.855 -4.75 14.75 C-4.63762783 10.95990735 -4.63762783 10.95990735 -7 8.5625 C-7.66 8.046875 -8.32 7.53125 -9 7 C-7.88625 6.773125 -6.7725 6.54625 -5.625 6.3125 C-1.83961627 5.39376342 -1.83961627 5.39376342 -0.5625 2.375 C-0.376875 1.59125 -0.19125 0.8075 0 0 Z " fill="#E5E6ED" transform="translate(142,215)"/>
<path d="M0 0 C0.66 0 1.32 0 2 0 C2.185625 0.78375 2.37125 1.5675 2.5625 2.375 C3.83961627 5.39376342 3.83961627 5.39376342 7.625 6.3125 C8.73875 6.539375 9.8525 6.76625 11 7 C10.01 7.7734375 10.01 7.7734375 9 8.5625 C6.34362457 11.79995755 6.68657868 13.92552281 7 18 C5.948125 17.62875 4.89625 17.2575 3.8125 16.875 C-0.18632214 15.95723754 -1.49128216 16.08615391 -5 18 C-4.9175 16.9275 -4.835 15.855 -4.75 14.75 C-4.63762783 10.95990735 -4.63762783 10.95990735 -7 8.5625 C-7.66 8.046875 -8.32 7.53125 -9 7 C-7.88625 6.773125 -6.7725 6.54625 -5.625 6.3125 C-1.83961627 5.39376342 -1.83961627 5.39376342 -0.5625 2.375 C-0.376875 1.59125 -0.19125 0.8075 0 0 Z " fill="#E5E5ED" transform="translate(23,108)"/>
<path d="M0 0 C0.66 0 1.32 0 2 0 C2.33 1.98 2.66 3.96 3 6 C5.31 6 7.62 6 10 6 C10 6.99 10 7.98 10 9 C9.01 9.66 8.02 10.32 7 11 C6.74984127 14.58357241 6.74984127 14.58357241 7 18 C5.948125 17.62875 4.89625 17.2575 3.8125 16.875 C-0.18632214 15.95723754 -1.49128216 16.08615391 -5 18 C-4.9175 16.906875 -4.835 15.81375 -4.75 14.6875 C-4.57398486 10.96483185 -4.57398486 10.96483185 -7 9.1875 C-7.99 8.5996875 -7.99 8.5996875 -9 8 C-9 7.34 -9 6.68 -9 6 C-5.535 5.505 -5.535 5.505 -2 5 C-1.34 3.35 -0.68 1.7 0 0 Z " fill="#E5E6ED" transform="translate(47,215)"/>
<path d="M0 0 C0.66 0 1.32 0 2 0 C2.33 1.98 2.66 3.96 3 6 C5.31 6 7.62 6 10 6 C10 6.99 10 7.98 10 9 C9.01 9.66 8.02 10.32 7 11 C6.74984127 14.58357241 6.74984127 14.58357241 7 18 C5.948125 17.62875 4.89625 17.2575 3.8125 16.875 C-0.18632214 15.95723754 -1.49128216 16.08615391 -5 18 C-4.9175 16.9275 -4.835 15.855 -4.75 14.75 C-4.63762783 10.95990735 -4.63762783 10.95990735 -7 8.5625 C-7.66 8.046875 -8.32 7.53125 -9 7 C-7.88625 6.773125 -6.7725 6.54625 -5.625 6.3125 C-1.83961627 5.39376342 -1.83961627 5.39376342 -0.5625 2.375 C-0.376875 1.59125 -0.19125 0.8075 0 0 Z " fill="#E5E6ED" transform="translate(142,123)"/>
<path d="M0 0 C0.66 0 1.32 0 2 0 C2.66 1.65 3.32 3.3 4 5 C6.31 5.33 8.62 5.66 11 6 C9.25 9.875 9.25 9.875 7 11 C7 13.31 7 15.62 7 18 C5.948125 17.62875 4.89625 17.2575 3.8125 16.875 C-0.18632214 15.95723754 -1.49128216 16.08615391 -5 18 C-4.9071875 16.3603125 -4.9071875 16.3603125 -4.8125 14.6875 C-4.62756763 11.08247389 -4.62756763 11.08247389 -6.5 9.1875 C-6.995 8.795625 -7.49 8.40375 -8 8 C-8 7.34 -8 6.68 -8 6 C-5.69 6 -3.38 6 -1 6 C-0.67 4.02 -0.34 2.04 0 0 Z " fill="#E7E7EE" transform="translate(118,200)"/>
<path d="M0 0 C1.5 1.3125 1.5 1.3125 3 3 C3 3.99 3 4.98 3 6 C5.31 6 7.62 6 10 6 C9.1875 7.9375 9.1875 7.9375 8 10 C7.01 10.33 6.02 10.66 5 11 C5.66 13.31 6.32 15.62 7 18 C4.61435923 17.42415568 2.33317216 16.77772405 0 16 C-2.6569191 16.87914688 -2.6569191 16.87914688 -5 18 C-4.9175 16.906875 -4.835 15.81375 -4.75 14.6875 C-4.57398486 10.96483185 -4.57398486 10.96483185 -7 9.1875 C-7.99 8.5996875 -7.99 8.5996875 -9 8 C-9 7.34 -9 6.68 -9 6 C-6.69 6 -4.38 6 -2 6 C-1.34 4.02 -0.68 2.04 0 0 Z " fill="#E7E7EE" transform="translate(71,200)"/>
<path d="M0 0 C0.66 0 1.32 0 2 0 C2.20625 0.804375 2.4125 1.60875 2.625 2.4375 C3.07875 3.283125 3.5325 4.12875 4 5 C7.05272465 5.89830839 7.05272465 5.89830839 10 6 C9.690625 6.5775 9.38125 7.155 9.0625 7.75 C7.34416297 11.38883135 7 13.92920988 7 18 C5.948125 17.62875 4.89625 17.2575 3.8125 16.875 C-0.18632214 15.95723754 -1.49128216 16.08615391 -5 18 C-4.9175 16.906875 -4.835 15.81375 -4.75 14.6875 C-4.57398486 10.96483185 -4.57398486 10.96483185 -7 9.1875 C-7.99 8.5996875 -7.99 8.5996875 -9 8 C-9 7.34 -9 6.68 -9 6 C-5.535 5.505 -5.535 5.505 -2 5 C-1.34 3.35 -0.68 1.7 0 0 Z " fill="#E8E9EF" transform="translate(142,154)"/>
<path d="M0 0 C0.66 0.33 1.32 0.66 2 1 C2.625 3.5625 2.625 3.5625 3 6 C5.31 6 7.62 6 10 6 C9.1875 7.9375 9.1875 7.9375 8 10 C7.01 10.33 6.02 10.66 5 11 C5.33 11.763125 5.66 12.52625 6 13.3125 C7 16 7 16 7 19 C6.401875 18.690625 5.80375 18.38125 5.1875 18.0625 C2.91043228 16.89790296 2.91043228 16.89790296 0 16 C-2.6569191 16.87914688 -2.6569191 16.87914688 -5 18 C-4.9175 16.906875 -4.835 15.81375 -4.75 14.6875 C-4.57398486 10.96483185 -4.57398486 10.96483185 -7 9.1875 C-7.99 8.5996875 -7.99 8.5996875 -9 8 C-9 7.34 -9 6.68 -9 6 C-6.69 6 -4.38 6 -2 6 C-1.34 4.02 -0.68 2.04 0 0 Z " fill="#E6E6ED" transform="translate(190,123)"/>
<path d="M0 0 C0.66 0.33 1.32 0.66 2 1 C2.625 3.5625 2.625 3.5625 3 6 C5.31 6 7.62 6 10 6 C8.25 9.875 8.25 9.875 6 11 C6 13.31 6 15.62 6 18 C5.071875 17.62875 4.14375 17.2575 3.1875 16.875 C2.135625 16.58625 1.08375 16.2975 0 16 C-0.99 16.66 -1.98 17.32 -3 18 C-3.99 18 -4.98 18 -6 18 C-5.34 15.69 -4.68 13.38 -4 11 C-4.639375 10.731875 -5.27875 10.46375 -5.9375 10.1875 C-8 9 -8 9 -9 6 C-6.69 6 -4.38 6 -2 6 C-1.855625 5.195625 -1.71125 4.39125 -1.5625 3.5625 C-1 1 -1 1 0 0 Z " fill="#E6E7ED" transform="translate(95,123)"/>
<path d="M0 0 C0.66 0.33 1.32 0.66 2 1 C2.625 3.5625 2.625 3.5625 3 6 C5.31 6 7.62 6 10 6 C8.25 9.875 8.25 9.875 6 11 C6 13.31 6 15.62 6 18 C3.69 17.34 1.38 16.68 -1 16 C-1.66 16.66 -2.32 17.32 -3 18 C-3.99 18 -4.98 18 -6 18 C-5.125 13.25 -5.125 13.25 -4 11 C-4.639375 10.731875 -5.27875 10.46375 -5.9375 10.1875 C-8 9 -8 9 -9 6 C-6.69 6 -4.38 6 -2 6 C-1.855625 5.195625 -1.71125 4.39125 -1.5625 3.5625 C-1 1 -1 1 0 0 Z " fill="#E6E7ED" transform="translate(214,108)"/>
<path d="M0 0 C0.66 0 1.32 0 2 0 C2.66 1.65 3.32 3.3 4 5 C6.31 5.33 8.62 5.66 11 6 C9.25 9.875 9.25 9.875 7 11 C7 13.31 7 15.62 7 18 C5.948125 17.62875 4.89625 17.2575 3.8125 16.875 C-0.18632214 15.95723754 -1.49128216 16.08615391 -5 18 C-4.9071875 16.3603125 -4.9071875 16.3603125 -4.8125 14.6875 C-4.62756763 11.08247389 -4.62756763 11.08247389 -6.5 9.1875 C-6.995 8.795625 -7.49 8.40375 -8 8 C-8 7.34 -8 6.68 -8 6 C-5.69 6 -3.38 6 -1 6 C-0.67 4.02 -0.34 2.04 0 0 Z " fill="#E6E7ED" transform="translate(118,108)"/>
<path d="M0 0 C0.99 0.33 1.98 0.66 3 1 C3.33 2.65 3.66 4.3 4 6 C6.31 6 8.62 6 11 6 C10 9 10 9 7 11 C7.33 13.31 7.66 15.62 8 18 C6.88625 17.4740625 6.88625 17.4740625 5.75 16.9375 C2.77299356 15.92261144 1.87632105 15.97936995 -1 17 C-2.33333333 17.33333333 -3.66666667 17.66666667 -5 18 C-4.67 15.69 -4.34 13.38 -4 11 C-4.66 10.54625 -5.32 10.0925 -6 9.625 C-6.66 9.08875 -7.32 8.5525 -8 8 C-8 7.34 -8 6.68 -8 6 C-5.69 6 -3.38 6 -1 6 C-0.67 4.02 -0.34 2.04 0 0 Z " fill="#EAEAEF" transform="translate(213,231)"/>
<path d="M0 0 C0.99 0.33 1.98 0.66 3 1 C3.33 2.65 3.66 4.3 4 6 C6.31 6 8.62 6 11 6 C11 6.66 11 7.32 11 8 C10.34 8.391875 9.68 8.78375 9 9.1875 C6.57398486 10.96483185 6.57398486 10.96483185 6.75 14.6875 C6.87375 16.3271875 6.87375 16.3271875 7 18 C6.1646875 17.4740625 6.1646875 17.4740625 5.3125 16.9375 C1.55681863 15.41492647 -1.2832512 16.76108373 -5 18 C-4.67 15.36 -4.34 12.72 -4 10 C-5.32 9.34 -6.64 8.68 -8 8 C-8 7.34 -8 6.68 -8 6 C-5.69 6 -3.38 6 -1 6 C-0.67 4.02 -0.34 2.04 0 0 Z " fill="#E9EAEF" transform="translate(118,231)"/>
<path d="M0 0 C0.66 0.33 1.32 0.66 2 1 C2.625 3.5625 2.625 3.5625 3 6 C5.31 6 7.62 6 10 6 C8.25 9.875 8.25 9.875 6 11 C6 13.31 6 15.62 6 18 C5.13375 17.4740625 5.13375 17.4740625 4.25 16.9375 C1.56641628 15.81934012 0.69390896 16.07396879 -2 17 C-3.33333333 17.33333333 -4.66666667 17.66666667 -6 18 C-5.125 13.25 -5.125 13.25 -4 11 C-4.639375 10.731875 -5.27875 10.46375 -5.9375 10.1875 C-8 9 -8 9 -9 6 C-6.69 6 -4.38 6 -2 6 C-1.855625 5.195625 -1.71125 4.39125 -1.5625 3.5625 C-1 1 -1 1 0 0 Z " fill="#E7E7EE" transform="translate(214,200)"/>
<path d="M0 0 C0.66 0 1.32 0 2 0 C2.33 1.98 2.66 3.96 3 6 C5.31 6 7.62 6 10 6 C9.1875 7.9375 9.1875 7.9375 8 10 C7.01 10.33 6.02 10.66 5 11 C5.33 11.598125 5.66 12.19625 6 12.8125 C7 15 7 15 7 18 C5.948125 17.62875 4.89625 17.2575 3.8125 16.875 C-0.18632214 15.95723754 -1.49128216 16.08615391 -5 18 C-4.9175 16.906875 -4.835 15.81375 -4.75 14.6875 C-4.57398486 10.96483185 -4.57398486 10.96483185 -7 9.1875 C-7.99 8.5996875 -7.99 8.5996875 -9 8 C-9 7.34 -9 6.68 -9 6 C-6.69 6 -4.38 6 -2 6 C-1.34 4.02 -0.68 2.04 0 0 Z " fill="#E7E7EE" transform="translate(166,200)"/>
<path d="M0 0 C0.66 0 1.32 0 2 0 C2.33 1.98 2.66 3.96 3 6 C5.31 6 7.62 6 10 6 C8.25 9.875 8.25 9.875 6 11 C6.33 13.31 6.66 15.62 7 18 C5.88625 17.4740625 5.88625 17.4740625 4.75 16.9375 C1.77299356 15.92261144 0.87632105 15.97936995 -2 17 C-3.33333333 17.33333333 -4.66666667 17.66666667 -6 18 C-5.67 15.69 -5.34 13.38 -5 11 C-5.66 10.54625 -6.32 10.0925 -7 9.625 C-7.66 9.08875 -8.32 8.5525 -9 8 C-9 7.34 -9 6.68 -9 6 C-6.69 6 -4.38 6 -2 6 C-1.34 4.02 -0.68 2.04 0 0 Z " fill="#E9EAEF" transform="translate(190,154)"/>
<path d="M0 0 C0.99 0.33 1.98 0.66 3 1 C3.33 2.65 3.66 4.3 4 6 C6.31 6 8.62 6 11 6 C10 9 10 9 7 11 C7.33 13.31 7.66 15.62 8 18 C6.88625 17.4740625 6.88625 17.4740625 5.75 16.9375 C2.77299356 15.92261144 1.87632105 15.97936995 -1 17 C-2.33333333 17.33333333 -3.66666667 17.66666667 -5 18 C-4.67 15.69 -4.34 13.38 -4 11 C-4.66 10.54625 -5.32 10.0925 -6 9.625 C-6.66 9.08875 -7.32 8.5525 -8 8 C-8 7.34 -8 6.68 -8 6 C-5.69 6 -3.38 6 -1 6 C-0.67 4.02 -0.34 2.04 0 0 Z " fill="#EAEAEF" transform="translate(94,154)"/>
<path d="M0 0 C0.99 0.33 1.98 0.66 3 1 C3.33 2.65 3.66 4.3 4 6 C6.31 6 8.62 6 11 6 C10 9 10 9 7 11 C7.33 13.31 7.66 15.62 8 18 C6.88625 17.4740625 6.88625 17.4740625 5.75 16.9375 C2.77299356 15.92261144 1.87632105 15.97936995 -1 17 C-2.33333333 17.33333333 -3.66666667 17.66666667 -5 18 C-4.67 15.69 -4.34 13.38 -4 11 C-4.66 10.54625 -5.32 10.0925 -6 9.625 C-6.66 9.08875 -7.32 8.5525 -8 8 C-8 7.34 -8 6.68 -8 6 C-5.69 6 -3.38 6 -1 6 C-0.67 4.02 -0.34 2.04 0 0 Z " fill="#EAEAEF" transform="translate(213,139)"/>
<path d="M0 0 C1.5 1.3125 1.5 1.3125 3 3 C3 3.99 3 4.98 3 6 C5.31 6 7.62 6 10 6 C8.84826645 8.46800047 7.95216435 10.04783565 6 12 C6.32198966 15.09926819 6.32198966 15.09926819 7 18 C5.88625 17.4740625 5.88625 17.4740625 4.75 16.9375 C1.77299356 15.92261144 0.87632105 15.97936995 -2 17 C-3.33333333 17.33333333 -4.66666667 17.66666667 -6 18 C-5.67 15.69 -5.34 13.38 -5 11 C-5.66 10.54625 -6.32 10.0925 -7 9.625 C-7.66 9.08875 -8.32 8.5525 -9 8 C-9 7.34 -9 6.68 -9 6 C-6.69 6 -4.38 6 -2 6 C-1.34 4.02 -0.68 2.04 0 0 Z " fill="#EAEAEF" transform="translate(71,139)"/>
<path d="M0 0 C1.5 1.3125 1.5 1.3125 3 3 C3 3.99 3 4.98 3 6 C5.31 6 7.62 6 10 6 C9.1875 7.9375 9.1875 7.9375 8 10 C7.01 10.33 6.02 10.66 5 11 C5.66 13.31 6.32 15.62 7 18 C4.61435923 17.42415568 2.33317216 16.77772405 0 16 C-2.6569191 16.87914688 -2.6569191 16.87914688 -5 18 C-4.9175 16.906875 -4.835 15.81375 -4.75 14.6875 C-4.57398486 10.96483185 -4.57398486 10.96483185 -7 9.1875 C-7.99 8.5996875 -7.99 8.5996875 -9 8 C-9 7.34 -9 6.68 -9 6 C-6.69 6 -4.38 6 -2 6 C-1.34 4.02 -0.68 2.04 0 0 Z " fill="#E7E7EE" transform="translate(71,108)"/>
<path d="M0 0 C0.66 0.33 1.32 0.66 2 1 C2.625 3.5625 2.625 3.5625 3 6 C5.31 6 7.62 6 10 6 C9.1875 7.9375 9.1875 7.9375 8 10 C7.01 10.33 6.02 10.66 5 11 C5.66 13.31 6.32 15.62 7 18 C4.61435923 17.42415568 2.33317216 16.77772405 0 16 C-2.6569191 16.87914688 -2.6569191 16.87914688 -5 18 C-4.9175 16.906875 -4.835 15.81375 -4.75 14.6875 C-4.57398486 10.96483185 -4.57398486 10.96483185 -7 9.1875 C-7.99 8.5996875 -7.99 8.5996875 -9 8 C-9 7.34 -9 6.68 -9 6 C-6.69 6 -4.38 6 -2 6 C-1.34 4.02 -0.68 2.04 0 0 Z " fill="#E8E8EE" transform="translate(190,215)"/>
<path d="M0 0 C0.66 0.33 1.32 0.66 2 1 C2.625 3.5625 2.625 3.5625 3 6 C5.31 6 7.62 6 10 6 C8.25 9.875 8.25 9.875 6 11 C6 13.31 6 15.62 6 18 C5.13375 17.4740625 5.13375 17.4740625 4.25 16.9375 C1.56641628 15.81934012 0.69390896 16.07396879 -2 17 C-3.33333333 17.33333333 -4.66666667 17.66666667 -6 18 C-5.34 15.69 -4.68 13.38 -4 11 C-4.639375 10.731875 -5.27875 10.46375 -5.9375 10.1875 C-8 9 -8 9 -9 6 C-6.69 6 -4.38 6 -2 6 C-1.855625 5.195625 -1.71125 4.39125 -1.5625 3.5625 C-1 1 -1 1 0 0 Z " fill="#E7E8EE" transform="translate(95,215)"/>
<path d="M0 0 C0.66 0 1.32 0 2 0 C2.33 1.98 2.66 3.96 3 6 C5.31 6 7.62 6 10 6 C8.25 9.875 8.25 9.875 6 11 C6.33 13.31 6.66 15.62 7 18 C5.948125 17.62875 4.89625 17.2575 3.8125 16.875 C-0.18632214 15.95723754 -1.49128216 16.08615391 -5 18 C-4.9175 16.906875 -4.835 15.81375 -4.75 14.6875 C-4.57398486 10.96483185 -4.57398486 10.96483185 -7 9.1875 C-7.99 8.5996875 -7.99 8.5996875 -9 8 C-9 7.34 -9 6.68 -9 6 C-6.69 6 -4.38 6 -2 6 C-1.34 4.02 -0.68 2.04 0 0 Z " fill="#E9EAEF" transform="translate(47,154)"/>
<path d="M0 0 C0.99 0.33 1.98 0.66 3 1 C3.33 2.65 3.66 4.3 4 6 C6.31 6 8.62 6 11 6 C11 6.66 11 7.32 11 8 C10.34 8.391875 9.68 8.78375 9 9.1875 C6.57398486 10.96483185 6.57398486 10.96483185 6.75 14.6875 C6.87375 16.3271875 6.87375 16.3271875 7 18 C6.1646875 17.4740625 6.1646875 17.4740625 5.3125 16.9375 C1.55681863 15.41492647 -1.2832512 16.76108373 -5 18 C-4.67 15.36 -4.34 12.72 -4 10 C-5.32 9.34 -6.64 8.68 -8 8 C-8 7.34 -8 6.68 -8 6 C-5.69 6 -3.38 6 -1 6 C-0.67 4.02 -0.34 2.04 0 0 Z " fill="#EAEAEF" transform="translate(118,139)"/>
<path d="M0 0 C0.66 0 1.32 0 2 0 C2.33 1.98 2.66 3.96 3 6 C5.31 6 7.62 6 10 6 C8.84826645 8.46800047 7.95216435 10.04783565 6 12 C6.32198966 15.09926819 6.32198966 15.09926819 7 18 C5.88625 17.4740625 5.88625 17.4740625 4.75 16.9375 C1.80084393 15.93210589 0.84541832 15.95667995 -2 17 C-2.99 17.33 -3.98 17.66 -5 18 C-4.9175 16.906875 -4.835 15.81375 -4.75 14.6875 C-4.57398486 10.96483185 -4.57398486 10.96483185 -7 9.1875 C-7.99 8.5996875 -7.99 8.5996875 -9 8 C-9 7.34 -9 6.68 -9 6 C-6.69 6 -4.38 6 -2 6 C-1.34 4.02 -0.68 2.04 0 0 Z " fill="#EBEBF0" transform="translate(166,231)"/>
<path d="M0 0 C1.5 1.3125 1.5 1.3125 3 3 C3 3.99 3 4.98 3 6 C5.31 6 7.62 6 10 6 C9 9 9 9 6 11 C6.33 13.31 6.66 15.62 7 18 C5.88625 17.4740625 5.88625 17.4740625 4.75 16.9375 C1.77299356 15.92261144 0.87632105 15.97936995 -2 17 C-3.33333333 17.33333333 -4.66666667 17.66666667 -6 18 C-5.67 15.69 -5.34 13.38 -5 11 C-5.66 10.54625 -6.32 10.0925 -7 9.625 C-7.66 9.08875 -8.32 8.5525 -9 8 C-9 7.34 -9 6.68 -9 6 C-6.69 6 -4.38 6 -2 6 C-1.34 4.02 -0.68 2.04 0 0 Z " fill="#EBEBF0" transform="translate(71,231)"/>
<path d="M0 0 C0.66 0 1.32 0 2 0 C2.20625 0.804375 2.4125 1.60875 2.625 2.4375 C3.07875 3.283125 3.5325 4.12875 4 5 C7.05272465 5.89830839 7.05272465 5.89830839 10 6 C9.690625 6.5775 9.38125 7.155 9.0625 7.75 C7.34416297 11.38883135 7 13.92920988 7 18 C5.948125 17.62875 4.89625 17.2575 3.8125 16.875 C-0.18632214 15.95723754 -1.49128216 16.08615391 -5 18 C-4.67 15.36 -4.34 12.72 -4 10 C-5.32 9.34 -6.64 8.68 -8 8 C-8 7.34 -8 6.68 -8 6 C-6.576875 5.9071875 -6.576875 5.9071875 -5.125 5.8125 C-4.09375 5.544375 -3.0625 5.27625 -2 5 C-0.54708727 2.53744315 -0.54708727 2.53744315 0 0 Z " fill="#EBEBF0" transform="translate(23,231)"/>
<path d="M0 0 C0.66 0.33 1.32 0.66 2 1 C2.625 4.0625 2.625 4.0625 3 7 C5.31 7 7.62 7 10 7 C10 7.66 10 8.32 10 9 C9.319375 9.5775 8.63875 10.155 7.9375 10.75 C7.298125 11.4925 6.65875 12.235 6 13 C6.14349347 16.19954954 6.14349347 16.19954954 7 19 C6.236875 18.67 5.47375 18.34 4.6875 18 C0.41535909 16.41036617 -1.95586595 17.25118528 -6 19 C-5.47731534 16.23723823 -4.89130413 13.6739124 -4 11 C-6.475 10.01 -6.475 10.01 -9 9 C-9 8.34 -9 7.68 -9 7 C-6.69 7 -4.38 7 -2 7 C-1.855625 6.030625 -1.71125 5.06125 -1.5625 4.0625 C-1 1 -1 1 0 0 Z " fill="#E9E9EF" transform="translate(190,184)"/>
<path d="M0 0 C0.66 0 1.32 0 2 0 C2.33 1.98 2.66 3.96 3 6 C5.31 6 7.62 6 10 6 C8.84826645 8.46800047 7.95216435 10.04783565 6 12 C6.32198966 15.09926819 6.32198966 15.09926819 7 18 C5.88625 17.4740625 5.88625 17.4740625 4.75 16.9375 C1.80084393 15.93210589 0.84541832 15.95667995 -2 17 C-2.99 17.33 -3.98 17.66 -5 18 C-4.9175 16.906875 -4.835 15.81375 -4.75 14.6875 C-4.57398486 10.96483185 -4.57398486 10.96483185 -7 9.1875 C-7.99 8.5996875 -7.99 8.5996875 -9 8 C-9 7.34 -9 6.68 -9 6 C-6.69 6 -4.38 6 -2 6 C-1.34 4.02 -0.68 2.04 0 0 Z " fill="#EBEBF0" transform="translate(166,139)"/>
<path d="M0 0 C0.66 0 1.32 0 2 0 C2.20625 0.804375 2.4125 1.60875 2.625 2.4375 C3.07875 3.283125 3.5325 4.12875 4 5 C7.05272465 5.89830839 7.05272465 5.89830839 10 6 C9.690625 6.5775 9.38125 7.155 9.0625 7.75 C7.34416297 11.38883135 7 13.92920988 7 18 C5.948125 17.62875 4.89625 17.2575 3.8125 16.875 C-0.18632214 15.95723754 -1.49128216 16.08615391 -5 18 C-4.67 15.36 -4.34 12.72 -4 10 C-5.32 9.34 -6.64 8.68 -8 8 C-8 7.34 -8 6.68 -8 6 C-6.576875 5.9071875 -6.576875 5.9071875 -5.125 5.8125 C-4.09375 5.544375 -3.0625 5.27625 -2 5 C-0.54708727 2.53744315 -0.54708727 2.53744315 0 0 Z " fill="#EAEBEF" transform="translate(23,139)"/>
<path d="M0 0 C0.66 0.33 1.32 0.66 2 1 C2.625 4.0625 2.625 4.0625 3 7 C5.31 7 7.62 7 10 7 C8.625 9 8.625 9 7 11 C6.34 11 5.68 11 5 11 C5.66 13.64 6.32 16.28 7 19 C6.236875 18.67 5.47375 18.34 4.6875 18 C0.41535909 16.41036617 -1.95586595 17.25118528 -6 19 C-5.67 16.69 -5.34 14.38 -5 12 C-5.66 11.54625 -6.32 11.0925 -7 10.625 C-7.66 10.08875 -8.32 9.5525 -9 9 C-9 8.34 -9 7.68 -9 7 C-6.69 7 -4.38 7 -2 7 C-1.855625 6.030625 -1.71125 5.06125 -1.5625 4.0625 C-1 1 -1 1 0 0 Z " fill="#E9E9EF" transform="translate(214,169)"/>
<path d="M0 0 C0.66 0.33 1.32 0.66 2 1 C2.625 4.0625 2.625 4.0625 3 7 C5.31 7 7.62 7 10 7 C8.625 9 8.625 9 7 11 C6.34 11 5.68 11 5 11 C5.66 13.64 6.32 16.28 7 19 C6.236875 18.67 5.47375 18.34 4.6875 18 C0.41535909 16.41036617 -1.95586595 17.25118528 -6 19 C-5.67 16.69 -5.34 14.38 -5 12 C-5.66 11.54625 -6.32 11.0925 -7 10.625 C-7.66 10.08875 -8.32 9.5525 -9 9 C-9 8.34 -9 7.68 -9 7 C-6.69 7 -4.38 7 -2 7 C-1.855625 6.030625 -1.71125 5.06125 -1.5625 4.0625 C-1 1 -1 1 0 0 Z " fill="#EAEAEF" transform="translate(95,184)"/>
<path d="M0 0 C0.66 0 1.32 0 2 0 C2.33 1.98 2.66 3.96 3 6 C5.31 6 7.62 6 10 6 C9 9 9 9 7 10 C7 12.64 7 15.28 7 18 C6.1646875 17.4740625 6.1646875 17.4740625 5.3125 16.9375 C1.55681863 15.41492647 -1.2832512 16.76108373 -5 18 C-4.67 15.36 -4.34 12.72 -4 10 C-4.639375 9.71125 -5.27875 9.4225 -5.9375 9.125 C-8 8 -8 8 -9 6 C-6.69 6 -4.38 6 -2 6 C-1.34 4.02 -0.68 2.04 0 0 Z " fill="#EAEAEF" transform="translate(47,185)"/>
<path d="M0 0 C0.66 0 1.32 0 2 0 C2.33 1.98 2.66 3.96 3 6 C5.31 6 7.62 6 10 6 C9 9 9 9 7 10 C7 12.64 7 15.28 7 18 C6.195625 17.4740625 6.195625 17.4740625 5.375 16.9375 C2.2365758 15.69864834 0.23787556 16.22572541 -3 17 C-3.66 17.33 -4.32 17.66 -5 18 C-4.67 15.36 -4.34 12.72 -4 10 C-4.639375 9.71125 -5.27875 9.4225 -5.9375 9.125 C-8 8 -8 8 -9 6 C-6.69 6 -4.38 6 -2 6 C-1.34 4.02 -0.68 2.04 0 0 Z " fill="#EAEAEF" transform="translate(166,170)"/>
<path d="M0 0 C0.99 0.33 1.98 0.66 3 1 C3.33 2.65 3.66 4.3 4 6 C6.31 6 8.62 6 11 6 C9.625 8 9.625 8 8 10 C7.34 10 6.68 10 6 10 C6.33 12.64 6.66 15.28 7 18 C6.1646875 17.4740625 6.1646875 17.4740625 5.3125 16.9375 C1.55681863 15.41492647 -1.2832512 16.76108373 -5 18 C-4.90234375 15.98177083 -4.8046875 13.96354167 -4.70703125 11.9453125 C-4.80371094 11.30335938 -4.90039062 10.66140625 -5 10 C-5.99 9.34 -6.98 8.68 -8 8 C-8 7.34 -8 6.68 -8 6 C-5.69 6 -3.38 6 -1 6 C-0.67 4.02 -0.34 2.04 0 0 Z " fill="#EAEAEF" transform="translate(118,170)"/>
<path d="M0 0 C0.99 0.33 1.98 0.66 3 1 C3.6875 3.0625 3.6875 3.0625 4 5 C6.31 5.33 8.62 5.66 11 6 C10.34 6.495 9.68 6.99 9 7.5 C6.1172783 11.10340212 6.69799003 13.46985042 7 18 C6.1646875 17.4740625 6.1646875 17.4740625 5.3125 16.9375 C1.55681863 15.41492647 -1.2832512 16.76108373 -5 18 C-4.9175 16.7625 -4.835 15.525 -4.75 14.25 C-4.7262052 10.89493302 -4.80358323 10.24552096 -7 7.5 C-7.66 7.005 -8.32 6.51 -9 6 C-5.535 5.505 -5.535 5.505 -2 5 C-1.34 3.35 -0.68 1.7 0 0 Z " fill="#EAEBEF" transform="translate(23,170)"/>
<path d="M0 0 C0.66 0 1.32 0 2 0 C2.66 1.65 3.32 3.3 4 5 C6.31 5.33 8.62 5.66 11 6 C10.34 6.495 9.68 6.99 9 7.5 C6.1172783 11.10340212 6.69799003 13.46985042 7 18 C6.1646875 17.4740625 6.1646875 17.4740625 5.3125 16.9375 C1.55681863 15.41492647 -1.2832512 16.76108373 -5 18 C-4.9175 16.7625 -4.835 15.525 -4.75 14.25 C-4.7262052 10.89493302 -4.80358323 10.24552096 -7 7.5 C-7.66 7.005 -8.32 6.51 -9 6 C-5.535 5.505 -5.535 5.505 -2 5 C-1.34 3.35 -0.68 1.7 0 0 Z " fill="#EBECF0" transform="translate(142,185)"/>
<path d="M0 0 C0.66 0.33 1.32 0.66 2 1 C2.625 4.0625 2.625 4.0625 3 7 C5.31 7 7.62 7 10 7 C10 7.66 10 8.32 10 9 C8.35 9.66 6.7 10.32 5 11 C5.33 11.763125 5.66 12.52625 6 13.3125 C7 16 7 16 7 19 C6.236875 18.67 5.47375 18.34 4.6875 18 C0.41535909 16.41036617 -1.95586595 17.25118528 -6 19 C-5.34 16.36 -4.68 13.72 -4 11 C-4.639375 10.71125 -5.27875 10.4225 -5.9375 10.125 C-8 9 -8 9 -9 7 C-6.69 7 -4.38 7 -2 7 C-1.855625 6.030625 -1.71125 5.06125 -1.5625 4.0625 C-1 1 -1 1 0 0 Z " fill="#EBEBF0" transform="translate(71,169)"/>
<path d="M0 0 C0.66 0.33 1.32 0.66 2 1 C-1.63 4.63 -5.26 8.26 -9 12 C-9 7.8407692 -6.75316432 5.85455565 -4 3 C-1.6875 1.125 -1.6875 1.125 0 0 Z " fill="#7F6098" transform="translate(16,94)"/>
</svg>
