<svg xmlns="http://www.w3.org/2000/svg" xmlns:xlink="http://www.w3.org/1999/xlink" width="500" zoomAndPan="magnify" viewBox="0 0 375 374.999991" height="500" preserveAspectRatio="xMidYMid meet" version="1.0"><defs><clipPath id="91c6a1d0e1"><path d="M 10.15625 10.15625 L 364.84375 10.15625 L 364.84375 364.84375 L 10.15625 364.84375 Z M 10.15625 10.15625 " clip-rule="nonzero"/></clipPath><clipPath id="496c49dbdf"><path d="M 187.5 10.15625 C 89.554688 10.15625 10.15625 89.554688 10.15625 187.5 C 10.15625 285.445312 89.554688 364.84375 187.5 364.84375 C 285.445312 364.84375 364.84375 285.445312 364.84375 187.5 C 364.84375 89.554688 285.445312 10.15625 187.5 10.15625 Z M 187.5 10.15625 " clip-rule="nonzero"/></clipPath><clipPath id="435f27d517"><path d="M 0.15625 0.15625 L 354.84375 0.15625 L 354.84375 354.84375 L 0.15625 354.84375 Z M 0.15625 0.15625 " clip-rule="nonzero"/></clipPath><clipPath id="583a71ef7f"><path d="M 177.5 0.15625 C 79.554688 0.15625 0.15625 79.554688 0.15625 177.5 C 0.15625 275.445312 79.554688 354.84375 177.5 354.84375 C 275.445312 354.84375 354.84375 275.445312 354.84375 177.5 C 354.84375 79.554688 275.445312 0.15625 177.5 0.15625 Z M 177.5 0.15625 " clip-rule="nonzero"/></clipPath><clipPath id="1e06987d6a"><rect x="0" width="355" y="0" height="355"/></clipPath><clipPath id="f099668085"><path d="M 59.027344 120 L 300 120 L 300 347 L 59.027344 347 Z M 59.027344 120 " clip-rule="nonzero"/></clipPath><clipPath id="fa7cb2f140"><path d="M 196 253 L 290 253 L 290 350.792969 L 196 350.792969 Z M 196 253 " clip-rule="nonzero"/></clipPath><clipPath id="248b54f481"><path d="M 100 44.792969 L 171 44.792969 L 171 116 L 100 116 Z M 100 44.792969 " clip-rule="nonzero"/></clipPath></defs><g clip-path="url(#91c6a1d0e1)"><g clip-path="url(#496c49dbdf)"><g transform="matrix(1, 0, 0, 1, 10, 10)"><g clip-path="url(#1e06987d6a)"><g clip-path="url(#435f27d517)"><g clip-path="url(#583a71ef7f)"><path fill="#1800ad" d="M 0.15625 0.15625 L 354.84375 0.15625 L 354.84375 354.84375 L 0.15625 354.84375 Z M 0.15625 0.15625 " fill-opacity="1" fill-rule="nonzero"/></g></g></g></g></g></g><g clip-path="url(#f099668085)"><path fill="#ffffff" d="M 299.390625 203.652344 C 262.449219 225.40625 211.007812 215.574219 190.523438 176.097656 C 146.675781 91.613281 59.113281 111.164062 59.113281 187.082031 C 59.113281 237.019531 136.058594 305.015625 193.820312 346.105469 C 147.746094 239.820312 245.75 270.828125 287.949219 245.203125 C 297.667969 228.816406 300.722656 216.269531 299.390625 203.652344 Z M 279.34375 236.480469 C 281.882812 231.964844 284.105469 227.339844 285.640625 222.539062 C 269.679688 227.472656 252.464844 228.164062 236.101562 224.34375 C 211.957031 218.714844 191.546875 203.726562 180.035156 181.542969 C 171.917969 165.90625 160.464844 150.910156 145.292969 141.554688 C 134.75 135.058594 122.421875 131.410156 110.007812 133.144531 C 99.097656 134.664062 89.589844 140.179688 82.730469 148.8125 C 74.160156 159.59375 70.933594 173.53125 70.933594 187.082031 C 70.933594 212.628906 96.988281 244.195312 113.449219 261.851562 C 126.714844 276.078125 141.160156 289.375 156.023438 301.910156 C 161.039062 306.140625 166.125 310.300781 171.273438 314.386719 C 169.574219 304.660156 169.34375 294.90625 171.75 286.015625 C 176.199219 269.578125 188.257812 259.933594 203.742188 254.300781 C 217.429688 249.320312 232.710938 247.515625 247.050781 245.167969 C 257.128906 243.519531 269.890625 241.332031 279.34375 236.480469 Z M 279.34375 236.480469 " fill-opacity="1" fill-rule="evenodd"/></g><path fill="#ffffff" d="M 201.105469 173.808594 C 224.863281 202.160156 265.636719 209.179688 297.507812 190.410156 C 315.886719 115.234375 229.804688 107.78125 201.105469 173.808594 Z M 201.105469 173.808594 " fill-opacity="1" fill-rule="evenodd"/><g clip-path="url(#fa7cb2f140)"><path fill="#ffffff" d="M 289.722656 253.183594 C 247.523438 278.808594 163.753906 244.847656 209.828125 351.128906 C 235.484375 324.949219 262.542969 294.722656 282.480469 264.695312 C 285.09375 260.761719 287.503906 256.921875 289.722656 253.183594 Z M 289.722656 253.183594 " fill-opacity="1" fill-rule="evenodd"/></g><g clip-path="url(#248b54f481)"><path fill="#ffffff" d="M 170.640625 80.03125 C 170.640625 81.183594 170.585938 82.335938 170.472656 83.484375 C 170.359375 84.632812 170.1875 85.773438 169.964844 86.902344 C 169.738281 88.035156 169.457031 89.152344 169.125 90.257812 C 168.789062 91.363281 168.402344 92.449219 167.957031 93.515625 C 167.515625 94.582031 167.023438 95.621094 166.480469 96.640625 C 165.9375 97.660156 165.34375 98.648438 164.703125 99.605469 C 164.0625 100.566406 163.375 101.492188 162.640625 102.382812 C 161.910156 103.277344 161.136719 104.128906 160.320312 104.945312 C 159.503906 105.761719 158.648438 106.535156 157.757812 107.269531 C 156.867188 108 155.941406 108.6875 154.980469 109.328125 C 154.019531 109.96875 153.03125 110.5625 152.015625 111.105469 C 150.996094 111.652344 149.953125 112.144531 148.886719 112.585938 C 147.820312 113.027344 146.738281 113.414062 145.632812 113.75 C 144.527344 114.085938 143.410156 114.363281 142.277344 114.589844 C 141.144531 114.816406 140.003906 114.984375 138.855469 115.097656 C 137.707031 115.210938 136.558594 115.265625 135.402344 115.265625 C 134.25 115.265625 133.097656 115.210938 131.949219 115.097656 C 130.800781 114.984375 129.660156 114.816406 128.527344 114.589844 C 127.398438 114.363281 126.277344 114.085938 125.175781 113.75 C 124.070312 113.414062 122.984375 113.027344 121.917969 112.585938 C 120.851562 112.144531 119.808594 111.652344 118.792969 111.105469 C 117.773438 110.5625 116.785156 109.96875 115.824219 109.328125 C 114.867188 108.6875 113.941406 108 113.046875 107.269531 C 112.15625 106.535156 111.300781 105.761719 110.484375 104.945312 C 109.671875 104.128906 108.894531 103.277344 108.164062 102.382812 C 107.433594 101.492188 106.746094 100.566406 106.105469 99.605469 C 105.460938 98.648438 104.871094 97.660156 104.328125 96.640625 C 103.78125 95.621094 103.289062 94.582031 102.847656 93.515625 C 102.40625 92.449219 102.019531 91.363281 101.683594 90.257812 C 101.347656 89.152344 101.066406 88.035156 100.84375 86.902344 C 100.617188 85.773438 100.449219 84.632812 100.335938 83.484375 C 100.222656 82.335938 100.164062 81.183594 100.164062 80.03125 C 100.164062 78.875 100.222656 77.722656 100.335938 76.574219 C 100.449219 75.425781 100.617188 74.285156 100.84375 73.15625 C 101.066406 72.023438 101.347656 70.90625 101.683594 69.800781 C 102.019531 68.695312 102.40625 67.609375 102.847656 66.542969 C 103.289062 65.476562 103.78125 64.4375 104.328125 63.417969 C 104.871094 62.402344 105.460938 61.410156 106.105469 60.453125 C 106.746094 59.492188 107.433594 58.566406 108.164062 57.675781 C 108.894531 56.78125 109.671875 55.929688 110.484375 55.113281 C 111.300781 54.296875 112.15625 53.523438 113.046875 52.789062 C 113.941406 52.058594 114.867188 51.371094 115.824219 50.730469 C 116.785156 50.089844 117.773438 49.496094 118.792969 48.953125 C 119.808594 48.410156 120.851562 47.914062 121.917969 47.472656 C 122.984375 47.03125 124.070312 46.644531 125.175781 46.308594 C 126.277344 45.972656 127.398438 45.695312 128.527344 45.46875 C 129.660156 45.242188 130.800781 45.074219 131.949219 44.960938 C 133.097656 44.847656 134.25 44.792969 135.402344 44.792969 C 136.558594 44.792969 137.707031 44.847656 138.855469 44.960938 C 140.003906 45.074219 141.144531 45.242188 142.277344 45.46875 C 143.410156 45.695312 144.527344 45.972656 145.632812 46.308594 C 146.738281 46.644531 147.820312 47.03125 148.886719 47.472656 C 149.953125 47.914062 150.996094 48.410156 152.015625 48.953125 C 153.03125 49.496094 154.019531 50.089844 154.980469 50.730469 C 155.941406 51.371094 156.867188 52.058594 157.757812 52.789062 C 158.648438 53.523438 159.503906 54.296875 160.320312 55.113281 C 161.136719 55.929688 161.910156 56.78125 162.640625 57.675781 C 163.375 58.566406 164.0625 59.492188 164.703125 60.453125 C 165.34375 61.410156 165.9375 62.402344 166.480469 63.417969 C 167.023438 64.4375 167.515625 65.476562 167.957031 66.542969 C 168.402344 67.609375 168.789062 68.695312 169.125 69.800781 C 169.457031 70.90625 169.738281 72.023438 169.964844 73.15625 C 170.1875 74.285156 170.359375 75.425781 170.472656 76.574219 C 170.585938 77.722656 170.640625 78.875 170.640625 80.03125 Z M 170.640625 80.03125 " fill-opacity="1" fill-rule="nonzero"/></g><path fill="#ffffff" d="M 281.253906 85.527344 C 281.253906 86.46875 281.207031 87.410156 281.117188 88.347656 C 281.023438 89.285156 280.886719 90.21875 280.699219 91.140625 C 280.515625 92.066406 280.289062 92.980469 280.015625 93.882812 C 279.742188 94.785156 279.425781 95.667969 279.0625 96.539062 C 278.703125 97.410156 278.300781 98.261719 277.855469 99.09375 C 277.410156 99.925781 276.925781 100.730469 276.402344 101.515625 C 275.878906 102.300781 275.320312 103.054688 274.722656 103.785156 C 274.125 104.511719 273.492188 105.210938 272.824219 105.875 C 272.160156 106.542969 271.460938 107.175781 270.730469 107.773438 C 270.003906 108.371094 269.246094 108.933594 268.464844 109.457031 C 267.679688 109.980469 266.871094 110.464844 266.042969 110.90625 C 265.210938 111.351562 264.359375 111.753906 263.488281 112.117188 C 262.617188 112.476562 261.730469 112.792969 260.828125 113.066406 C 259.925781 113.339844 259.015625 113.570312 258.089844 113.753906 C 257.164062 113.9375 256.234375 114.074219 255.296875 114.167969 C 254.359375 114.257812 253.417969 114.304688 252.476562 114.304688 C 251.53125 114.304688 250.59375 114.257812 249.65625 114.167969 C 248.714844 114.074219 247.785156 113.9375 246.859375 113.753906 C 245.9375 113.570312 245.023438 113.339844 244.121094 113.066406 C 243.21875 112.792969 242.332031 112.476562 241.460938 112.117188 C 240.589844 111.753906 239.742188 111.351562 238.910156 110.90625 C 238.078125 110.464844 237.269531 109.980469 236.488281 109.457031 C 235.703125 108.933594 234.945312 108.371094 234.21875 107.773438 C 233.488281 107.175781 232.792969 106.542969 232.125 105.875 C 231.460938 105.210938 230.828125 104.511719 230.230469 103.785156 C 229.632812 103.054688 229.070312 102.300781 228.546875 101.515625 C 228.023438 100.730469 227.539062 99.925781 227.09375 99.09375 C 226.652344 98.261719 226.25 97.410156 225.886719 96.539062 C 225.527344 95.667969 225.210938 94.785156 224.9375 93.882812 C 224.664062 92.980469 224.433594 92.066406 224.25 91.140625 C 224.066406 90.21875 223.929688 89.285156 223.835938 88.347656 C 223.742188 87.410156 223.695312 86.46875 223.695312 85.527344 C 223.695312 84.585938 223.742188 83.644531 223.835938 82.707031 C 223.929688 81.769531 224.066406 80.835938 224.25 79.914062 C 224.433594 78.988281 224.664062 78.074219 224.9375 77.171875 C 225.210938 76.269531 225.527344 75.386719 225.886719 74.515625 C 226.25 73.644531 226.652344 72.792969 227.09375 71.960938 C 227.539062 71.128906 228.023438 70.324219 228.546875 69.539062 C 229.070312 68.753906 229.632812 68 230.230469 67.269531 C 230.828125 66.542969 231.460938 65.84375 232.125 65.179688 C 232.792969 64.511719 233.488281 63.878906 234.21875 63.28125 C 234.945312 62.683594 235.703125 62.121094 236.488281 61.597656 C 237.269531 61.074219 238.078125 60.589844 238.910156 60.148438 C 239.742188 59.703125 240.589844 59.300781 241.460938 58.9375 C 242.332031 58.578125 243.21875 58.261719 244.121094 57.988281 C 245.023438 57.714844 245.9375 57.484375 246.859375 57.300781 C 247.785156 57.117188 248.714844 56.980469 249.65625 56.886719 C 250.59375 56.792969 251.53125 56.75 252.476562 56.75 C 253.417969 56.75 254.359375 56.792969 255.296875 56.886719 C 256.234375 56.980469 257.164062 57.117188 258.089844 57.300781 C 259.015625 57.484375 259.925781 57.714844 260.828125 57.988281 C 261.730469 58.261719 262.617188 58.578125 263.488281 58.9375 C 264.359375 59.300781 265.210938 59.703125 266.042969 60.148438 C 266.871094 60.589844 267.679688 61.074219 268.464844 61.597656 C 269.246094 62.121094 270.003906 62.683594 270.730469 63.28125 C 271.460938 63.878906 272.160156 64.511719 272.824219 65.179688 C 273.492188 65.84375 274.125 66.542969 274.722656 67.269531 C 275.320312 68 275.878906 68.753906 276.402344 69.539062 C 276.925781 70.324219 277.410156 71.128906 277.855469 71.960938 C 278.300781 72.792969 278.703125 73.644531 279.0625 74.515625 C 279.425781 75.386719 279.742188 76.269531 280.015625 77.171875 C 280.289062 78.074219 280.515625 78.988281 280.699219 79.914062 C 280.886719 80.835938 281.023438 81.769531 281.117188 82.707031 C 281.207031 83.644531 281.253906 84.585938 281.253906 85.527344 Z M 281.253906 85.527344 " fill-opacity="1" fill-rule="nonzero"/></svg>